<?xml version="1.0" encoding="UTF-8"?>
<svg width="347px" height="140px" viewBox="0 0 347 140" version="1.1" xmlns="http://www.w3.org/2000/svg" xmlns:xlink="http://www.w3.org/1999/xlink">
    <title>plop.si</title>
    <g id="Page-1" stroke="none" stroke-width="1" fill="none" fill-rule="evenodd">
        <path d="M50.3935566,97.6380681 L83.999052,63.2635315 C85.2056379,62.0292892 85.1831313,60.0508012 83.9490796,58.844406 L79.4809354,54.4763973 C78.246693,53.2700022 76.268205,53.2923181 75.0618099,54.5263697 L41.4563144,88.9010971 C34.8014002,95.7080266 24.0641974,95.6994436 17.4216809,88.8454026 C10.7599002,81.971716 10.8646134,70.7296392 17.6541861,63.7842365 L58.6231741,21.8781703 C62.3724404,18.0426921 68.3819094,18.0447902 72.1296498,21.8781703 C75.9624577,25.7985253 75.9624577,32.1780191 72.1319386,36.0964668 L36.4192094,72.5906348 C35.5515586,73.4785035 34.2091698,73.4634355 33.3552519,72.5584007 C32.4591816,71.6085434 32.5185,69.9710885 33.4817088,68.9857545 L61.5536176,40.3099806 C62.7607757,39.0766919 62.7397949,37.0982039 61.5065062,35.8908551 L57.0414137,31.5197947 C55.8083157,30.3126366 53.8298277,30.3338081 52.6222882,31.5669061 L24.5475184,60.245541 C18.9187552,66.0034313 18.741563,75.2813251 24.264087,81.1347734 C29.9962282,87.2108087 39.5232212,87.2939689 45.3541628,81.329704 L81.066892,44.8353452 C89.6493682,36.0566033 89.6390685,21.9090693 81.066892,13.1408178 C72.4106016,4.2861636 58.3412687,4.28692654 49.6857412,13.1408178 L8.71713467,55.0470747 C-2.75286972,66.7795296 -2.96553858,85.7680937 8.44648255,97.5432731 C19.9361326,109.398942 38.757804,109.540086 50.3935566,97.6380681 Z M149.3625,94.5 C153.629167,94.5 157.445833,93.3666667 160.8125,91.1 C164.179167,88.8333333 167.295833,85.9333333 170.1625,82.4 C171.429167,80.9333333 172.0625,78.8666667 172.0625,76.2 C172.0625,74.8 171.8125,73.7 171.3125,72.9 C170.8125,72.1 170.129167,71.7 169.2625,71.7 C168.2625,71.7 167.3625,72.1666667 166.5625,73.1 C163.3625,76.9 160.729167,79.5833333 158.6625,81.15 C156.595833,82.7166667 154.195833,83.5 151.4625,83.5 C149.729167,83.5 148.329167,82.9166667 147.2625,81.75 C146.195833,80.5833333 145.429167,78.6333333 144.9625,75.9 C152.495833,65.6333333 158.4625,55.2666667 162.8625,44.8 C167.2625,34.3333333 169.4625,25.1333333 169.4625,17.2 C169.4625,11.6666667 168.545833,7.41666667 166.7125,4.45 C164.879167,1.48333333 162.3625,0 159.1625,0 C153.495833,0 148.6125,3.73333333 144.5125,11.2 C140.4125,18.6666667 137.3125,27.6 135.2125,38 C133.1125,48.4 132.0625,57.6666667 132.0625,65.8 C132.0625,74.2666667 133.479167,81.1666667 136.3125,86.5 C139.145833,91.8333333 143.495833,94.5 149.3625,94.5 Z M144.2625,62.4 C144.395833,54.8666667 145.195833,47 146.6625,38.8 C148.129167,30.6 149.829167,23.7333333 151.7625,18.2 C153.695833,12.6666667 155.429167,9.9 156.9625,9.9 C158.829167,9.9 159.7625,12.4333333 159.7625,17.5 C159.7625,23.9666667 158.3625,31.1166667 155.5625,38.95 C152.7625,46.7833333 148.995833,54.6 144.2625,62.4 Z M181.3625,94.5 C186.095833,94.5 190.329167,92.8166667 194.0625,89.45 C197.795833,86.0833333 200.295833,81.6 201.5625,76 C206.3625,75.8 210.7625,75 214.7625,73.6 C216.695833,73 217.6625,71.1 217.6625,67.9 C217.6625,66.5666667 217.429167,65.4666667 216.9625,64.6 C216.495833,63.7333333 215.829167,63.3 214.9625,63.3 C214.5625,63.3 214.095833,63.3666667 213.5625,63.5 C209.229167,64.6333333 205.495833,65.3 202.3625,65.5 C201.829167,60.3666667 200.0125,56.05 196.9125,52.55 C193.8125,49.05 189.729167,47.3 184.6625,47.3 C180.529167,47.3 176.7625,48.4166667 173.3625,50.65 C169.9625,52.8833333 167.295833,55.9833333 165.3625,59.95 C163.429167,63.9166667 162.4625,68.4333333 162.4625,73.5 C162.4625,77.2333333 163.195833,80.7 164.6625,83.9 C166.129167,87.1 168.279167,89.6666667 171.1125,91.6 C173.945833,93.5333333 177.3625,94.5 181.3625,94.5 Z M182.1625,83.9 C180.229167,83.9 178.545833,82.9333333 177.1125,81 C175.679167,79.0666667 174.9625,76.2666667 174.9625,72.6 C174.9625,67.9333333 175.845833,64.3166667 177.6125,61.75 C179.379167,59.1833333 181.595833,57.9 184.2625,57.9 L184.2625,57.9 L184.7625,57.9 C184.5625,58.9666667 184.4625,60.0333333 184.4625,61.1 C184.4625,63.6333333 185.0125,66.0333333 186.1125,68.3 C187.2125,70.5666667 188.795833,72.4 190.8625,73.8 C190.329167,77.0666667 189.279167,79.5666667 187.7125,81.3 C186.145833,83.0333333 184.295833,83.9 182.1625,83.9 Z M202.9625,139.7 C208.895833,139.7 213.395833,135.383333 216.4625,126.75 C219.529167,118.116667 221.495833,107.366667 222.3625,94.5 C226.9625,94.3666667 231.279167,92.8333333 235.3125,89.9 C239.345833,86.9666667 242.579167,83.15 245.0125,78.45 C247.445833,73.75 248.6625,68.7666667 248.6625,63.5 C248.6625,58.6333333 247.479167,54.7 245.1125,51.7 C242.745833,48.7 239.695833,47.2 235.9625,47.2 C233.629167,47.2 231.429167,47.7833333 229.3625,48.95 C227.295833,50.1166667 225.195833,52.0333333 223.0625,54.7 C222.995833,53.9 222.9625,52.6666667 222.9625,51 C222.895833,49.3333333 222.545833,48.2166667 221.9125,47.65 C221.279167,47.0833333 220.2625,46.8 218.8625,46.8 C216.4625,46.8 214.4625,47.3666667 212.8625,48.5 C211.2625,49.6333333 210.495833,51.1666667 210.5625,53.1 C210.689907,56.7311111 210.756442,63.0710453 210.762105,72.1198025 L210.7625,73.4 C204.495833,83.8666667 199.8625,93.45 196.8625,102.15 C193.8625,110.85 192.3625,118.466667 192.3625,125 C192.3625,129.6 193.229167,133.2 194.9625,135.8 C196.695833,138.4 199.3625,139.7 202.9625,139.7 Z M222.8625,84.9 C222.929167,83.2333333 222.9625,80.8666667 222.9625,77.8 L222.962628,77.1980867 C222.964923,71.8279337 222.998214,67.7285714 223.0625,64.9 C226.4625,59.8333333 229.3625,57.3 231.7625,57.3 C233.095833,57.3 234.1625,57.8166667 234.9625,58.85 C235.7625,59.8833333 236.1625,61.4 236.1625,63.4 C236.1625,66.8 235.5625,70.05 234.3625,73.15 C233.1625,76.25 231.545833,78.85 229.5125,80.95 C227.479167,83.05 225.2625,84.3666667 222.8625,84.9 Z M203.7625,129.9 C203.095833,129.9 202.5125,129.333333 202.0125,128.2 C201.5125,127.066667 201.2625,125.433333 201.2625,123.3 C201.2625,119.166667 202.095833,114.066667 203.7625,108 C205.429167,101.933333 207.695833,95.5666667 210.5625,88.9 C210.229167,100.566667 209.4625,110.316667 208.2625,118.15 C207.0625,125.983333 205.5625,129.9 203.7625,129.9 Z M261.6625,94.5 C264.6625,94.5 267.029167,93.5833333 268.7625,91.75 C270.495833,89.9166667 271.3625,87.4666667 271.3625,84.4 C271.3625,81.6 270.6125,79.4833333 269.1125,78.05 C267.6125,76.6166667 265.395833,75.9 262.4625,75.9 C259.395833,75.9 257.0125,76.8 255.3125,78.6 C253.6125,80.4 252.7625,82.8 252.7625,85.8 C252.7625,88.4 253.5125,90.5 255.0125,92.1 C256.5125,93.7 258.729167,94.5 261.6625,94.5 Z M299.0625,96.7 C302.729167,96.7 305.895833,95.5666667 308.5625,93.3 C313.029167,93.1666667 316.779167,92.35 319.8125,90.85 C322.845833,89.35 326.029167,86.5333333 329.3625,82.4 C330.629167,80.8 331.2625,78.7333333 331.2625,76.2 C331.2625,74.8 331.0125,73.7 330.5125,72.9 C330.0125,72.1 329.329167,71.7 328.4625,71.7 C327.4625,71.7 326.5625,72.1666667 325.7625,73.1 C321.3625,78.5666667 317.529167,81.9333333 314.2625,83.2 C314.395833,82 314.4625,81.0666667 314.4625,80.4 C314.4625,78.0666667 313.9125,75.9166667 312.8125,73.95 C311.7125,71.9833333 310.095833,69.6 307.9625,66.8 C306.495833,65 305.4125,63.5 304.7125,62.3 C304.0125,61.1 303.6625,60 303.6625,59 C303.6625,57.3333333 304.2625,55.3 305.4625,52.9 C305.929167,52.0333333 306.295833,51.1666667 306.5625,50.3 C306.829167,49.4333333 306.9625,48.8 306.9625,48.4 C306.9625,47.6666667 306.595833,47.1333333 305.8625,46.8 C305.129167,46.4666667 303.829167,46.3 301.9625,46.3 C297.9625,46.3 295.329167,47.7666667 294.0625,50.7 C292.595833,54.1666667 291.095833,57.5166667 289.5625,60.75 C288.029167,63.9833333 286.695833,66.5666667 285.5625,68.5 C283.695833,71.4333333 280.929167,75.1666667 277.2625,79.7 L277.2625,79.7 L275.9625,81.3 C275.029167,82.4333333 274.5625,83.6666667 274.5625,85 C274.5625,86.1333333 274.895833,87.0833333 275.5625,87.85 C276.229167,88.6166667 277.095833,89 278.1625,89 C279.495833,89 280.7625,88.4 281.9625,87.2 C284.3625,84.8666667 286.579167,82.4 288.6125,79.8 C290.645833,77.2 292.695833,73.9333333 294.7625,70 C295.695833,71.0666667 296.695833,72.3166667 297.7625,73.75 C298.829167,75.1833333 299.7125,76.6666667 300.4125,78.2 C301.1125,79.7333333 301.495833,81.3666667 301.5625,83.1 C300.9625,83.0333333 300.079167,82.9166667 298.9125,82.75 C297.745833,82.5833333 296.729167,82.5 295.8625,82.5 C293.395833,82.5 291.529167,83.1333333 290.2625,84.4 C288.995833,85.6666667 288.3625,87.1666667 288.3625,88.9 C288.3625,90.9 289.279167,92.7 291.1125,94.3 C292.945833,95.9 295.595833,96.7 299.0625,96.7 Z M336.9625,40.8 C339.829167,40.8 342.129167,40.0166667 343.8625,38.45 C345.595833,36.8833333 346.4625,34.7666667 346.4625,32.1 C346.4625,29.9 345.695833,28.2 344.1625,27 C342.629167,25.8 340.629167,25.2 338.1625,25.2 C335.429167,25.2 333.145833,25.9833333 331.3125,27.55 C329.479167,29.1166667 328.5625,31.0666667 328.5625,33.4 C328.5625,35.7333333 329.2625,37.55 330.6625,38.85 C332.0625,40.15 334.1625,40.8 336.9625,40.8 Z M327.3625,94.5 C329.7625,94.5 331.529167,94.0666667 332.6625,93.2 C333.795833,92.3333333 334.429167,90.8333333 334.5625,88.7 C335.1625,79.0333333 336.9625,67.0666667 339.9625,52.8 C340.095833,51.8666667 340.1625,51.2333333 340.1625,50.9 C340.1625,48.5666667 338.729167,47.4 335.8625,47.4 C333.129167,47.4 331.145833,47.8166667 329.9125,48.65 C328.679167,49.4833333 327.795833,50.9333333 327.2625,53 C324.795833,63 323.029167,74.1 321.9625,86.3 C321.829167,87.6333333 321.7625,88.5666667 321.7625,89.1 C321.7625,90.9666667 322.1625,92.3333333 322.9625,93.2 C323.7625,94.0666667 325.229167,94.5 327.3625,94.5 Z" id="plop.si" fill="#121212" fill-rule="nonzero"></path>
    </g>
</svg>